<svg xmlns="http://www.w3.org/2000/svg"  viewBox="0 0 50 50" width="50px" height="50px"><path d="M 24.966797 1 A 1.0001 1.0001 0 0 0 24.236328 1.3535156 L 21.253906 4.875 A 1.0001 1.0001 0 0 0 21.396484 6.3046875 L 21.992188 6.7792969 L 21.992188 7.1054688 C 19.82483 7.2336024 17.859889 7.4916331 16.277344 7.8769531 C 15.132407 8.1557238 14.181429 8.4866723 13.431641 8.9335938 C 12.681852 9.380515 12 10.046707 12 10.996094 C 12 12.223096 12.806742 13.08813 13.919922 13.970703 C 14.100525 14.113892 14.310643 14.247023 14.513672 14.382812 C 14.23713 14.688082 13.957393 15.014143 13.634766 15.402344 C 12.874657 16.316943 12.025529 17.41768 11.226562 18.484375 C 9.6286305 20.617764 8.2324219 22.615234 8.2324219 22.615234 A 1.0001 1.0001 0 0 0 8.2285156 22.619141 C 6.9492266 24.470733 4.5483415 25.146543 2.4921875 24.232422 A 1.0001 1.0001 0 0 0 2.4882812 24.230469 L 2.25 24.126953 A 1.0001 1.0001 0 0 0 1.109375 25.714844 L 1.4746094 26.117188 C 2.7782562 27.551106 4.4486041 28.279487 6.1601562 28.609375 L 4.8632812 35.001953 C 3.0601189 43.883266 12.507294 50.955447 20.519531 46.724609 A 1.0001 1.0001 0 0 0 20.074219 44.839844 C 19.457941 44.827134 18.909889 44.636995 18.332031 44.515625 C 18.737596 44.391658 19.162603 44.39639 19.548828 44.205078 L 21.007812 43.482422 C 21.741989 43.832417 22.499746 44.183826 23.158203 44.455078 C 23.516452 44.602658 23.844992 44.728731 24.142578 44.824219 C 24.440165 44.919709 24.665468 45.001953 25.037109 45.001953 C 25.438804 45.001953 25.644536 44.909243 25.941406 44.806641 C 26.238277 44.704042 26.570685 44.568701 26.935547 44.410156 C 27.532681 44.150682 28.227352 43.812051 28.90625 43.478516 L 30.371094 44.205078 A 1.0001 1.0001 0 0 0 30.371094 44.207031 C 30.75532 44.397353 31.17802 44.343885 31.582031 44.451172 C 30.997875 44.596195 30.422043 44.829911 29.845703 44.841797 A 1.0001 1.0001 0 0 0 29.400391 46.724609 C 37.414483 50.955271 46.859813 43.884175 45.056641 35.003906 L 43.759766 28.613281 C 45.49761 28.298455 47.196655 27.574221 48.521484 26.117188 L 48.886719 25.716797 A 1.0001 1.0001 0 0 0 47.742188 24.128906 L 47.505859 24.232422 C 45.448908 25.145521 43.04845 24.472182 41.769531 22.621094 C 41.755131 22.598944 40.49118 20.654881 38.960938 18.533203 C 38.191471 17.46634 37.357489 16.35935 36.576172 15.425781 C 36.224093 15.005094 35.899965 14.637125 35.578125 14.302734 C 35.727997 14.199902 35.892009 14.102765 36.029297 13.996094 C 36.599456 13.553085 37.062429 13.084914 37.404297 12.599609 C 37.746197 12.114313 38 11.618093 38 10.996094 C 38 10.046707 37.318148 9.380515 36.568359 8.9335938 C 35.818571 8.4866723 34.867593 8.1557238 33.722656 7.8769531 C 32.137698 7.4910456 30.169376 7.2333739 27.998047 7.1054688 L 27.998047 6.7851562 L 28.607422 6.3125 A 1.0001 1.0001 0 0 0 28.755859 4.875 L 25.761719 1.3515625 A 1.0001 1.0001 0 0 0 24.966797 1 z M 25.001953 3.546875 L 26.554688 5.3730469 L 26.384766 5.5058594 A 1.0001 1.0001 0 0 0 25.998047 6.2949219 L 25.998047 7.0332031 C 25.663305 7.0269211 25.341748 7.0097656 25 7.0097656 C 24.65491 7.0097656 24.330129 7.0267982 23.992188 7.0332031 L 23.992188 6.2949219 A 1.0001 1.0001 0 0 0 23.615234 5.5117188 L 23.449219 5.3789062 L 25.001953 3.546875 z M 25 9.0097656 C 28.251028 9.0097656 31.194671 9.3203539 33.248047 9.8203125 C 34.274735 10.070292 35.080179 10.375328 35.544922 10.652344 C 36.009665 10.92936 36 11.07248 36 10.996094 C 36 10.945594 35.96577 11.165914 35.767578 11.447266 C 35.569383 11.728617 35.239825 12.078353 34.802734 12.417969 C 34.474034 12.673366 34.034175 12.9047 33.595703 13.130859 C 33.554413 12.682758 33.308117 12.340039 33.09375 12.173828 C 32.86188 11.994046 32.636001 11.894311 32.386719 11.800781 C 31.888153 11.613721 31.286457 11.481094 30.556641 11.365234 C 29.097009 11.133515 27.151422 10.996094 25 10.996094 C 22.848578 10.996094 20.902991 11.133515 19.443359 11.365234 C 18.713543 11.481094 18.111847 11.613721 17.613281 11.800781 C 17.363999 11.894311 17.13812 11.994046 16.90625 12.173828 C 16.688762 12.342459 16.431211 12.685752 16.396484 13.144531 C 15.943512 12.910966 15.499675 12.66843 15.164062 12.402344 C 14.314993 11.729167 14 10.895091 14 10.996094 C 14 11.072484 13.9903 10.929364 14.455078 10.652344 C 14.919821 10.375328 15.725265 10.070292 16.751953 9.8203125 C 18.805329 9.3203539 21.748972 9.0097656 25 9.0097656 z M 25 12.996094 C 25.337803 12.996094 25.660495 13.006649 25.986328 13.013672 L 25.986328 14.005859 A 1.0001 1.0001 0 0 0 26.183594 14.601562 L 26.726562 15.333984 L 24.992188 17.427734 L 23.263672 15.326172 L 23.800781 14.578125 A 1.0001 1.0001 0 0 0 23.988281 14 L 23.994141 13.013672 C 24.326148 13.006374 24.65551 12.996094 25 12.996094 z M 21.994141 13.097656 L 21.990234 13.669922 L 21.191406 14.783203 A 1.0001 1.0001 0 0 0 21.230469 16.001953 L 24.216797 19.634766 A 1.0001 1.0001 0 0 0 25.759766 19.638672 L 28.767578 16.003906 A 1.0001 1.0001 0 0 0 28.800781 14.771484 L 27.986328 13.673828 L 27.986328 13.097656 C 28.841409 13.15739 29.610904 13.239626 30.242188 13.339844 C 30.557264 13.389864 30.69991 13.44622 30.939453 13.501953 C 30.717668 13.694983 30.503496 13.877531 30.316406 14.078125 C 30.216314 14.185442 30.110916 14.226304 29.978516 14.591797 C 29.912316 14.774544 29.837324 15.237949 30.146484 15.615234 C 30.455645 15.992519 30.807003 15.998047 30.974609 15.998047 C 31.075578 15.998047 31.146624 15.983949 31.228516 15.974609 A 1.0001 1.0001 0 0 0 31.40625 15.962891 C 32.239478 15.828936 32.998926 15.592774 33.699219 15.308594 C 34.037383 15.605788 34.50273 16.063473 35.042969 16.708984 C 35.773277 17.581604 36.585357 18.659738 37.337891 19.703125 C 38.842958 21.789899 40.109375 23.734375 40.109375 23.734375 A 1.0001 1.0001 0 0 0 40.125 23.757812 C 41.153747 25.246806 42.71571 26.129805 44.398438 26.445312 C 43.815695 26.64953 43.225517 26.838243 42.617188 26.876953 C 42.386614 26.869078 41.414152 26.829247 40.074219 26.560547 C 38.56561 26.258024 36.818748 25.644053 35.855469 24.710938 A 1.0001 1.0001 0 0 0 35.132812 24.419922 A 1.0001 1.0001 0 0 0 34.464844 26.148438 C 35.928564 27.566322 37.988045 28.182257 39.679688 28.521484 C 40.486691 28.683314 41.211938 28.771354 41.761719 28.822266 L 43.097656 35.400391 C 44.326052 41.449996 39.392907 46.289924 33.912109 45.908203 C 34.751521 45.539292 35.509969 45.051691 36.185547 44.494141 C 38.71028 42.828286 40.358958 39.682103 40.273438 36.703125 A 1.0001 1.0001 0 0 0 40.273438 36.701172 L 40.199219 34.181641 A 1.0001 1.0001 0 0 0 39.15625 33.197266 A 1.0001 1.0001 0 0 0 38.201172 34.240234 L 38.273438 36.759766 C 38.32829 38.670514 37.170067 40.988375 35.607422 42.371094 C 34.407858 42.917491 32.543579 43.049985 31.259766 42.414062 C 31.537702 42.252322 31.793158 42.062498 32.046875 41.871094 C 32.106955 41.83893 32.507812 41.632812 32.507812 41.632812 A 1.0001 1.0001 0 0 0 33.005859 41.021484 C 34.740674 39.209473 35.581077 36.633763 34.931641 34.013672 L 33.634766 28.783203 A 1.0001 1.0001 0 0 0 33.128906 28.136719 C 32.562777 27.839933 30.94956 26.535153 29.585938 25.271484 C 28.904126 24.63965 28.256937 24.007861 27.757812 23.492188 C 27.258688 22.976513 26.863564 22.480655 26.878906 22.505859 A 1.0001 1.0001 0 0 0 25.027344 23.097656 C 25.182031 25.211214 25.749015 26.943496 26.482422 28.582031 C 23.23616 27.558938 20.842162 25.175065 20.263672 21.830078 A 1.0001 1.0001 0 0 0 18.351562 21.623047 L 17.625 23.416016 A 1.0001 1.0001 0 0 0 17.580078 23.552734 L 14.988281 34.011719 C 14.290502 36.827618 15.316641 39.587713 17.322266 41.40625 A 1.0001 1.0001 0 0 0 17.779297 41.873047 C 17.779297 41.873047 18.101776 42.03443 18.140625 42.054688 C 18.313548 42.174453 18.476868 42.305458 18.660156 42.412109 C 17.264948 43.10321 15.650905 43.151604 14.519531 42.638672 C 12.795476 41.306504 11.469605 38.801832 11.527344 36.761719 L 11.527344 36.759766 L 11.599609 34.240234 A 1.0001 1.0001 0 0 0 10.615234 33.197266 A 1.0001 1.0001 0 0 0 9.6015625 34.183594 L 9.5292969 36.703125 C 9.4420026 39.743878 11.161877 42.95486 13.775391 44.591797 C 14.421777 45.134134 15.144552 45.573142 15.927734 45.910156 C 10.480754 46.237291 5.6000133 41.420483 6.8222656 35.400391 L 8.1542969 28.837891 C 8.7186676 28.792766 9.4844014 28.709086 10.419922 28.521484 C 12.111563 28.182257 14.172998 27.566322 15.636719 26.148438 A 1.0001 1.0001 0 0 0 14.9375 24.419922 A 1.0001 1.0001 0 0 0 14.246094 24.710938 C 13.282814 25.644053 11.535952 26.258024 10.027344 26.560547 C 8.555769 26.855643 7.4032138 26.885345 7.3457031 26.886719 C 6.7447099 26.84643 6.1635706 26.649747 5.5878906 26.445312 C 7.274876 26.132013 8.8419616 25.248237 9.8730469 23.755859 L 9.8710938 23.761719 C 9.8710938 23.761719 11.253807 21.785455 12.828125 19.683594 C 13.615284 18.632663 14.45053 17.549993 15.173828 16.679688 C 15.675621 16.075906 16.093465 15.643384 16.392578 15.351562 C 17.019565 15.596162 17.686506 15.805777 18.417969 15.929688 C 18.479729 15.939187 18.565876 15.951152 18.566406 15.951172 C 18.567104 15.951201 18.884243 15.914212 18.884766 15.914062 C 18.885288 15.913913 19.292619 15.683919 19.292969 15.683594 C 19.293319 15.683268 19.552554 15.291515 19.552734 15.291016 C 19.552915 15.290516 19.613261 14.96942 19.613281 14.96875 C 19.613295 14.96808 19.606786 14.820699 19.597656 14.769531 C 19.579326 14.667195 19.556882 14.610676 19.539062 14.566406 C 19.467762 14.389328 19.437737 14.372936 19.408203 14.330078 C 19.349133 14.244358 19.30128 14.183532 19.240234 14.107422 C 19.118143 13.955203 18.960897 13.767494 18.804688 13.574219 C 18.801188 13.569819 18.798522 13.56692 18.794922 13.5625 C 19.077348 13.48653 19.322827 13.408898 19.757812 13.339844 C 20.384071 13.240424 21.147299 13.157293 21.994141 13.097656 z M 19.289062 24.972656 C 20.868039 28.179414 23.965343 30.400395 27.71875 31.001953 C 27.276856 31.532952 27.017578 32.215117 27.017578 32.957031 C 27.030578 34.380031 27.054453 34.496062 27.064453 34.539062 C 27.264453 35.924062 28.375109 36.958047 29.787109 36.998047 C 31.922943 36.998047 32.732137 35.042776 32.779297 33.646484 L 32.990234 34.494141 C 33.49617 36.535287 32.837441 38.571742 31.443359 39.931641 C 31.336642 39.989094 30.001647 40.709207 28.451172 41.482422 C 27.645592 41.884161 26.810886 42.284073 26.138672 42.576172 C 25.802565 42.722221 25.506309 42.840935 25.289062 42.916016 C 25.158124 42.961268 25.045824 42.981911 25.003906 42.992188 C 25.045575 42.989013 24.944493 42.98107 24.753906 42.919922 C 24.537977 42.850632 24.247361 42.740357 23.919922 42.605469 C 23.265044 42.335692 22.458398 41.96572 21.683594 41.59375 C 20.133985 40.849809 18.707031 40.101563 18.707031 40.101562 A 1.0001 1.0001 0 0 0 18.599609 40.052734 C 17.119661 38.694983 16.408743 36.596419 16.929688 34.494141 L 17.259766 33.164062 C 17.255284 33.281408 17.238281 33.395788 17.238281 33.513672 C 17.238281 34.914672 18.036406 36.998047 20.316406 36.998047 L 20.318359 36.998047 C 21.651359 36.958047 22.763078 35.925797 22.955078 34.591797 C 22.974078 34.498797 22.997719 34.380984 23.011719 32.958984 L 23.011719 32.949219 C 23.012719 31.915219 22.5165 30.974594 21.6875 30.433594 C 20.9295 29.938594 20.020797 29.863797 19.216797 30.216797 L 18.955078 30.326172 C 18.350605 30.589352 17.960329 30.951935 17.703125 31.371094 L 19.289062 24.972656 z M 27.634766 26.162109 C 27.843716 26.361771 28.007262 26.535055 28.226562 26.738281 C 29.485867 27.905277 30.71958 28.918789 31.769531 29.564453 L 32.162109 31.152344 C 31.906653 30.826356 31.559988 30.537689 31.060547 30.320312 L 30.818359 30.21875 C 30.321135 30.000872 29.79392 29.963858 29.285156 30.064453 A 1.0001 1.0001 0 0 0 29.142578 29.574219 C 28.478362 28.473488 27.997259 27.359544 27.634766 26.162109 z M 20 32 C 20.552 32 21 32.448 21 33 C 21 33.552 20.552 34 20 34 C 19.448 34 19 33.552 19 33 C 19 32.448 19.448 32 20 32 z M 30 32 C 30.552 32 31 32.448 31 33 C 31 33.552 30.552 34 30 34 C 29.448 34 29 33.552 29 33 C 29 32.448 29.448 32 30 32 z M 24 37 C 23.447 37 23 37.447 23 38 L 23 38.234375 C 23 39.381375 23.624719 40.996094 25.011719 40.996094 C 26.384719 40.996094 27.001953 39.382375 27.001953 38.234375 L 27.001953 38 C 27.001953 37.447 26.554953 37 26.001953 37 L 24 37 z"/></svg>